<mxfile host="app.diagrams.net" modified="2021-12-11T15:18:53.405Z" agent="5.0 (Windows NT 10.0; Win64; x64) AppleWebKit/537.36 (KHTML, like Gecko) Chrome/96.0.4664.55 Safari/537.36 Edg/96.0.1054.43" etag="8jaRVP3K5iLbeoj2GfuP" version="15.9.4" type="github">
  <diagram id="a8oWoHeUT2Bni0L-COV-" name="Page-1">
    <mxGraphModel dx="1662" dy="1931" grid="1" gridSize="10" guides="1" tooltips="1" connect="1" arrows="1" fold="1" page="1" pageScale="1" pageWidth="827" pageHeight="1169" math="0" shadow="0">
      <root>
        <mxCell id="0" />
        <mxCell id="1" parent="0" />
        <mxCell id="cRxy442TNQV_FxtYdbgl-3" value="" style="edgeStyle=orthogonalEdgeStyle;rounded=0;orthogonalLoop=1;jettySize=auto;html=1;" edge="1" parent="1" source="cRxy442TNQV_FxtYdbgl-1">
          <mxGeometry relative="1" as="geometry">
            <mxPoint x="414" y="30" as="targetPoint" />
          </mxGeometry>
        </mxCell>
        <mxCell id="cRxy442TNQV_FxtYdbgl-1" value="start" style="rounded=1;whiteSpace=wrap;html=1;" vertex="1" parent="1">
          <mxGeometry x="354" y="-110" width="120" height="60" as="geometry" />
        </mxCell>
        <mxCell id="cRxy442TNQV_FxtYdbgl-10" value="n" style="edgeStyle=orthogonalEdgeStyle;rounded=0;orthogonalLoop=1;jettySize=auto;html=1;" edge="1" parent="1" source="cRxy442TNQV_FxtYdbgl-6" target="cRxy442TNQV_FxtYdbgl-9">
          <mxGeometry relative="1" as="geometry" />
        </mxCell>
        <mxCell id="cRxy442TNQV_FxtYdbgl-103" value="y" style="edgeStyle=orthogonalEdgeStyle;rounded=0;orthogonalLoop=1;jettySize=auto;html=1;" edge="1" parent="1" source="cRxy442TNQV_FxtYdbgl-6" target="cRxy442TNQV_FxtYdbgl-102">
          <mxGeometry relative="1" as="geometry" />
        </mxCell>
        <mxCell id="cRxy442TNQV_FxtYdbgl-6" value="play or not" style="rhombus;whiteSpace=wrap;html=1;" vertex="1" parent="1">
          <mxGeometry x="374" y="30" width="80" height="80" as="geometry" />
        </mxCell>
        <mxCell id="cRxy442TNQV_FxtYdbgl-9" value="end" style="rounded=1;whiteSpace=wrap;html=1;" vertex="1" parent="1">
          <mxGeometry x="540" y="40" width="120" height="60" as="geometry" />
        </mxCell>
        <mxCell id="cRxy442TNQV_FxtYdbgl-28" style="edgeStyle=orthogonalEdgeStyle;rounded=0;orthogonalLoop=1;jettySize=auto;html=1;entryX=0.5;entryY=0;entryDx=0;entryDy=0;" edge="1" parent="1" source="cRxy442TNQV_FxtYdbgl-11" target="cRxy442TNQV_FxtYdbgl-27">
          <mxGeometry relative="1" as="geometry" />
        </mxCell>
        <mxCell id="cRxy442TNQV_FxtYdbgl-11" value="print logo" style="rounded=1;whiteSpace=wrap;html=1;" vertex="1" parent="1">
          <mxGeometry x="354" y="280" width="120" height="60" as="geometry" />
        </mxCell>
        <mxCell id="cRxy442TNQV_FxtYdbgl-16" value="" style="edgeStyle=orthogonalEdgeStyle;rounded=0;orthogonalLoop=1;jettySize=auto;html=1;" edge="1" parent="1" source="cRxy442TNQV_FxtYdbgl-13" target="cRxy442TNQV_FxtYdbgl-15">
          <mxGeometry relative="1" as="geometry" />
        </mxCell>
        <mxCell id="cRxy442TNQV_FxtYdbgl-13" value="print your car1 and&lt;br&gt;car2, and total score" style="whiteSpace=wrap;html=1;rounded=1;" vertex="1" parent="1">
          <mxGeometry x="354" y="500" width="120" height="60" as="geometry" />
        </mxCell>
        <mxCell id="cRxy442TNQV_FxtYdbgl-66" value="" style="edgeStyle=orthogonalEdgeStyle;rounded=0;orthogonalLoop=1;jettySize=auto;html=1;" edge="1" parent="1" source="cRxy442TNQV_FxtYdbgl-15" target="cRxy442TNQV_FxtYdbgl-65">
          <mxGeometry relative="1" as="geometry" />
        </mxCell>
        <mxCell id="cRxy442TNQV_FxtYdbgl-68" style="edgeStyle=orthogonalEdgeStyle;rounded=0;orthogonalLoop=1;jettySize=auto;html=1;" edge="1" parent="1" source="cRxy442TNQV_FxtYdbgl-15" target="cRxy442TNQV_FxtYdbgl-67">
          <mxGeometry relative="1" as="geometry" />
        </mxCell>
        <mxCell id="cRxy442TNQV_FxtYdbgl-15" value="print computer&#39;s card1,hind card2" style="whiteSpace=wrap;html=1;rounded=1;" vertex="1" parent="1">
          <mxGeometry x="354" y="610" width="120" height="60" as="geometry" />
        </mxCell>
        <mxCell id="cRxy442TNQV_FxtYdbgl-29" style="edgeStyle=orthogonalEdgeStyle;rounded=0;orthogonalLoop=1;jettySize=auto;html=1;" edge="1" parent="1" source="cRxy442TNQV_FxtYdbgl-27" target="cRxy442TNQV_FxtYdbgl-13">
          <mxGeometry relative="1" as="geometry" />
        </mxCell>
        <mxCell id="cRxy442TNQV_FxtYdbgl-27" value="add 2 cards both to player and computer&lt;br&gt;" style="rounded=1;whiteSpace=wrap;html=1;" vertex="1" parent="1">
          <mxGeometry x="354" y="390" width="120" height="60" as="geometry" />
        </mxCell>
        <mxCell id="cRxy442TNQV_FxtYdbgl-71" value="" style="edgeStyle=orthogonalEdgeStyle;rounded=0;orthogonalLoop=1;jettySize=auto;html=1;" edge="1" parent="1" source="cRxy442TNQV_FxtYdbgl-65">
          <mxGeometry relative="1" as="geometry">
            <mxPoint x="200" y="850" as="targetPoint" />
          </mxGeometry>
        </mxCell>
        <mxCell id="cRxy442TNQV_FxtYdbgl-65" value="your score == 21" style="whiteSpace=wrap;html=1;rounded=1;" vertex="1" parent="1">
          <mxGeometry x="140" y="710" width="120" height="60" as="geometry" />
        </mxCell>
        <mxCell id="cRxy442TNQV_FxtYdbgl-106" value="" style="edgeStyle=orthogonalEdgeStyle;rounded=0;orthogonalLoop=1;jettySize=auto;html=1;" edge="1" parent="1" source="cRxy442TNQV_FxtYdbgl-67">
          <mxGeometry relative="1" as="geometry">
            <mxPoint x="600" y="850" as="targetPoint" />
          </mxGeometry>
        </mxCell>
        <mxCell id="cRxy442TNQV_FxtYdbgl-67" value="your score &amp;lt; 21" style="rounded=1;whiteSpace=wrap;html=1;" vertex="1" parent="1">
          <mxGeometry x="540" y="710" width="120" height="60" as="geometry" />
        </mxCell>
        <mxCell id="cRxy442TNQV_FxtYdbgl-77" value="" style="edgeStyle=orthogonalEdgeStyle;rounded=0;orthogonalLoop=1;jettySize=auto;html=1;" edge="1" parent="1" source="cRxy442TNQV_FxtYdbgl-75" target="cRxy442TNQV_FxtYdbgl-76">
          <mxGeometry relative="1" as="geometry" />
        </mxCell>
        <mxCell id="cRxy442TNQV_FxtYdbgl-75" value="computer&#39;s score &amp;lt; 17" style="rhombus;whiteSpace=wrap;html=1;" vertex="1" parent="1">
          <mxGeometry x="160" y="850" width="80" height="80" as="geometry" />
        </mxCell>
        <mxCell id="cRxy442TNQV_FxtYdbgl-79" style="edgeStyle=orthogonalEdgeStyle;rounded=0;orthogonalLoop=1;jettySize=auto;html=1;exitX=0;exitY=0.5;exitDx=0;exitDy=0;entryX=0;entryY=0.5;entryDx=0;entryDy=0;" edge="1" parent="1" source="cRxy442TNQV_FxtYdbgl-76" target="cRxy442TNQV_FxtYdbgl-75">
          <mxGeometry relative="1" as="geometry" />
        </mxCell>
        <mxCell id="cRxy442TNQV_FxtYdbgl-81" value="" style="edgeStyle=orthogonalEdgeStyle;rounded=0;orthogonalLoop=1;jettySize=auto;html=1;" edge="1" parent="1" source="cRxy442TNQV_FxtYdbgl-76" target="cRxy442TNQV_FxtYdbgl-80">
          <mxGeometry relative="1" as="geometry" />
        </mxCell>
        <mxCell id="cRxy442TNQV_FxtYdbgl-76" value="add a card" style="rounded=1;whiteSpace=wrap;html=1;" vertex="1" parent="1">
          <mxGeometry x="140" y="970" width="120" height="60" as="geometry" />
        </mxCell>
        <mxCell id="cRxy442TNQV_FxtYdbgl-83" value="" style="edgeStyle=orthogonalEdgeStyle;rounded=0;orthogonalLoop=1;jettySize=auto;html=1;" edge="1" parent="1" source="cRxy442TNQV_FxtYdbgl-80" target="cRxy442TNQV_FxtYdbgl-82">
          <mxGeometry relative="1" as="geometry" />
        </mxCell>
        <mxCell id="cRxy442TNQV_FxtYdbgl-80" value="calculate computer&#39;s score" style="rounded=1;whiteSpace=wrap;html=1;" vertex="1" parent="1">
          <mxGeometry x="140" y="1110" width="120" height="60" as="geometry" />
        </mxCell>
        <mxCell id="cRxy442TNQV_FxtYdbgl-119" value="" style="edgeStyle=orthogonalEdgeStyle;rounded=0;orthogonalLoop=1;jettySize=auto;html=1;" edge="1" parent="1" source="cRxy442TNQV_FxtYdbgl-82" target="cRxy442TNQV_FxtYdbgl-118">
          <mxGeometry relative="1" as="geometry" />
        </mxCell>
        <mxCell id="cRxy442TNQV_FxtYdbgl-82" value="compare player and computer&#39;s score" style="whiteSpace=wrap;html=1;rounded=1;" vertex="1" parent="1">
          <mxGeometry x="140" y="1250" width="120" height="60" as="geometry" />
        </mxCell>
        <mxCell id="cRxy442TNQV_FxtYdbgl-104" value="" style="edgeStyle=orthogonalEdgeStyle;rounded=0;orthogonalLoop=1;jettySize=auto;html=1;" edge="1" parent="1" source="cRxy442TNQV_FxtYdbgl-102" target="cRxy442TNQV_FxtYdbgl-11">
          <mxGeometry relative="1" as="geometry" />
        </mxCell>
        <mxCell id="cRxy442TNQV_FxtYdbgl-102" value="clean screen" style="rounded=1;whiteSpace=wrap;html=1;" vertex="1" parent="1">
          <mxGeometry x="354" y="170" width="120" height="60" as="geometry" />
        </mxCell>
        <mxCell id="cRxy442TNQV_FxtYdbgl-110" value="n" style="edgeStyle=orthogonalEdgeStyle;rounded=0;orthogonalLoop=1;jettySize=auto;html=1;" edge="1" parent="1" source="cRxy442TNQV_FxtYdbgl-108" target="cRxy442TNQV_FxtYdbgl-109">
          <mxGeometry relative="1" as="geometry" />
        </mxCell>
        <mxCell id="cRxy442TNQV_FxtYdbgl-126" value="y" style="edgeStyle=orthogonalEdgeStyle;rounded=0;orthogonalLoop=1;jettySize=auto;html=1;" edge="1" parent="1" source="cRxy442TNQV_FxtYdbgl-108" target="cRxy442TNQV_FxtYdbgl-125">
          <mxGeometry relative="1" as="geometry" />
        </mxCell>
        <mxCell id="cRxy442TNQV_FxtYdbgl-108" value="add card" style="rhombus;whiteSpace=wrap;html=1;" vertex="1" parent="1">
          <mxGeometry x="560" y="850" width="80" height="80" as="geometry" />
        </mxCell>
        <mxCell id="cRxy442TNQV_FxtYdbgl-111" style="edgeStyle=orthogonalEdgeStyle;rounded=0;orthogonalLoop=1;jettySize=auto;html=1;entryX=1;entryY=0.5;entryDx=0;entryDy=0;" edge="1" parent="1" source="cRxy442TNQV_FxtYdbgl-109" target="cRxy442TNQV_FxtYdbgl-75">
          <mxGeometry relative="1" as="geometry" />
        </mxCell>
        <mxCell id="cRxy442TNQV_FxtYdbgl-109" value="calculate player&#39;s&lt;br&gt;score" style="rounded=1;whiteSpace=wrap;html=1;" vertex="1" parent="1">
          <mxGeometry x="354" y="860" width="120" height="60" as="geometry" />
        </mxCell>
        <mxCell id="cRxy442TNQV_FxtYdbgl-121" value="y" style="edgeStyle=orthogonalEdgeStyle;rounded=0;orthogonalLoop=1;jettySize=auto;html=1;" edge="1" parent="1" source="cRxy442TNQV_FxtYdbgl-118" target="cRxy442TNQV_FxtYdbgl-120">
          <mxGeometry relative="1" as="geometry" />
        </mxCell>
        <mxCell id="cRxy442TNQV_FxtYdbgl-123" value="" style="edgeStyle=orthogonalEdgeStyle;rounded=0;orthogonalLoop=1;jettySize=auto;html=1;" edge="1" parent="1" source="cRxy442TNQV_FxtYdbgl-118" target="cRxy442TNQV_FxtYdbgl-122">
          <mxGeometry relative="1" as="geometry" />
        </mxCell>
        <mxCell id="cRxy442TNQV_FxtYdbgl-118" value="player&#39;s score == 21" style="rhombus;whiteSpace=wrap;html=1;" vertex="1" parent="1">
          <mxGeometry x="160" y="1350" width="80" height="80" as="geometry" />
        </mxCell>
        <mxCell id="cRxy442TNQV_FxtYdbgl-120" value="print black jack" style="rounded=1;whiteSpace=wrap;html=1;" vertex="1" parent="1">
          <mxGeometry x="294" y="1360" width="120" height="60" as="geometry" />
        </mxCell>
        <mxCell id="cRxy442TNQV_FxtYdbgl-124" style="edgeStyle=orthogonalEdgeStyle;rounded=0;orthogonalLoop=1;jettySize=auto;html=1;entryX=0;entryY=0.5;entryDx=0;entryDy=0;" edge="1" parent="1" source="cRxy442TNQV_FxtYdbgl-122" target="cRxy442TNQV_FxtYdbgl-6">
          <mxGeometry relative="1" as="geometry">
            <Array as="points">
              <mxPoint x="60" y="1550" />
              <mxPoint x="60" y="70" />
            </Array>
          </mxGeometry>
        </mxCell>
        <mxCell id="cRxy442TNQV_FxtYdbgl-122" value="print result" style="rounded=1;whiteSpace=wrap;html=1;" vertex="1" parent="1">
          <mxGeometry x="140" y="1520" width="120" height="60" as="geometry" />
        </mxCell>
        <mxCell id="cRxy442TNQV_FxtYdbgl-125" value="add card" style="rounded=1;whiteSpace=wrap;html=1;" vertex="1" parent="1">
          <mxGeometry x="540" y="990" width="120" height="60" as="geometry" />
        </mxCell>
      </root>
    </mxGraphModel>
  </diagram>
</mxfile>
